# xmcd
#
# Track frame offsets:
#	150
#	16000
#	26676
#	41322
#	53147
#	62503
#	77227
#	89135
#	107864
#	120333
#	134597
#	146616
#	158799
#	172207
#	185299
#	196890
#	207262
#	216957
#	228054
#	243206
#
# Disc length: 3409 seconds
#
# Revision: 0
# Processed by: cddbd v1.5.2PL0 Copyright (c) Steve Scherf et al.
# Submitted via: EasyCDDAExtractor 16.0.1.1
#
DISCID=110d4f14
DTITLE=Wanda Jackson - Praise The Lord and I Wouldn't Want You Any Other Way
DYEAR=1971
DGENRE=Gospel
TTITLE0=The King Is Coming
TTITLE1=My Testiminy
TTITLE2=Didn't He Shine
TTITLE3=He Gives Us All His Love
TTITLE4=People Gotta Be Loving
TTITLE5=How Great Thou Art
TTITLE6=Am I Not My Brother's Keeper
TTITLE7=Oh Happy Day
TTITLE8=He's The Man
TTITLE9=Battle Hymn Of The Republic
TTITLE10=Song Of The Wind
TTITLE11=Crazy
TTITLE12=One Hundred Children
TTITLE13=I Wouldn't Want You Other Way
TTITLE14=Happy Tracks
TTITLE15=I'll Be Whatever You Say
TTITLE16=I Already Know (What I'm Getting For My Birthday)
TTITLE17=Missing You
TTITLE18=Back Then
TTITLE19=The More You See Me Less
EXTD=
EXTT0=
EXTT1=
EXTT2=
EXTT3=
EXTT4=
EXTT5=
EXTT6=
EXTT7=
EXTT8=
EXTT9=
EXTT10=
EXTT11=
EXTT12=
EXTT13=
EXTT14=
EXTT15=
EXTT16=
EXTT17=
EXTT18=
EXTT19=
PLAYORDER=
